<svg id="Layer_1" data-name="Layer 1" xmlns="http://www.w3.org/2000/svg" xmlns:xlink="http://www.w3.org/1999/xlink" viewBox="0 0 1510.6 288.3"><defs><style>.cls-1{fill:none;}.cls-2{font-size:159px;font-family:Ancress-Bold, Ancress;font-weight:700;letter-spacing:-0.04em;}.cls-11,.cls-2{fill:#071c2e;}.cls-3{letter-spacing:-0.05em;}.cls-4{letter-spacing:-0.08em;}.cls-5{letter-spacing:-0.08em;}.cls-6{letter-spacing:-0.04em;}.cls-7{fill:url(#linear-gradient);}.cls-8{fill:#13173b;}.cls-9{clip-path:url(#clip-path);}.cls-10{fill:#fff;}</style><linearGradient id="linear-gradient" x1="311.06" y1="681.49" x2="397.51" y2="492.34" gradientUnits="userSpaceOnUse"><stop offset="0" stop-color="#c7f1ee"/><stop offset="0.06" stop-color="#c3efec"/><stop offset="0.13" stop-color="#b6e9e5" stop-opacity="0.98"/><stop offset="0.21" stop-color="#a1dfda" stop-opacity="0.96"/><stop offset="0.28" stop-color="#85d1cb" stop-opacity="0.93"/><stop offset="0.35" stop-color="#65c2ba" stop-opacity="0.9"/><stop offset="0.49" stop-color="#8ec488" stop-opacity="0.93"/><stop offset="0.65" stop-color="#b7c657" stop-opacity="0.96"/><stop offset="0.8" stop-color="#d4c833" stop-opacity="0.98"/><stop offset="0.92" stop-color="#e7c91d"/><stop offset="1" stop-color="#edc915"/></linearGradient><clipPath id="clip-path" transform="translate(-244.12 -417.51)"><path class="cls-1" d="M343.82,417.51c.22-.22,1.18,28.59,1.18,28.59S241.15,651.87,313.37,678.93c0,0-47.5,15.61-62.49-54.55-2.6-12.16-4.75-40.56,27.19-96.33C295.91,496.9,333.73,445,343.82,417.51Z"/></clipPath></defs><text class="cls-2" transform="translate(275.3 219.27)">V<tspan class="cls-3" x="119.09" y="0">i</tspan><tspan x="155.96" y="0">s</tspan><tspan class="cls-4" x="239.56" y="0">h</tspan><tspan class="cls-5" x="325.57" y="0">v</tspan><tspan class="cls-6" x="412.36" y="0">eshwar Oil</tspan></text><path class="cls-7" d="M437.51,602c-12.83-5.72-8.52-26.28-7.2-31.47a3,3,0,0,0-.33-2.29c-6-10.11-51.14-86.14-53.44-89.77-26.28-41.58-32.7-61-32.7-61-5.24,18.41-26.28,51.69-26.28,51.69-27.94,41.82-52,88.1-57.63,97.82-11.8,20.42-9,58-7.55,63.13,13.32,48.79,39.63,49.49,44.56,49.49,42.38,0,75.2-14.6,82.18-17,16.1-5.63,42.56.84,42.76.54C441.07,633.87,438.76,602.58,437.51,602Zm-57.38,59.11c-2.95,4.33-44.38,15.73-65.9,4.39-10.6-5.59-20.39-11.6-10.76-46.68,3.93-14.29,31.6-115.66,41.2-144.87C346,469.87,383.2,614,383.2,614S394.35,640.27,380.13,661.13Z" transform="translate(-244.12 -417.51)"/><path class="cls-8" d="M461.65,560.73c-1.43-3.72-7.87-21.53-11-30.15a1.37,1.37,0,0,0-2.63.15c-3.3,14.18-12.32,37.08-13.91,41-.16.41-.32.83-.46,1.25-9.39,28.35,16.89,28.84,20.31,27.81C476.34,594.09,463.27,565,461.65,560.73Zm-7.59,33.53c2.78-3.28,5.65-9.25,6.5-20,.12-1.53,2.5-1.8,2.7-.28,1.17,8.82,1.77,16.31-7.62,22.45C454.44,597.21,453.14,595.36,454.06,594.26Z" transform="translate(-244.12 -417.51)"/><path class="cls-8" d="M448.48,597.79l-.2,0,.12,0Z" transform="translate(-244.12 -417.51)"/><path class="cls-10" d="M271.52,649.3l-.52-.45s-27.13-34.76,3.28-96c9.7-19.52,51.15-88,56.85-99.51,2.28-4.59-28.26,73.26-37.1,91.06,0,0-27.57,56.79-22.48,105" transform="translate(-244.12 -417.51)"/><path class="cls-11" d="M244.12,657.44s24.29,27.15,52.62,27.15c18,0,43-2.45,64.21-12,9.07-4.09,47.55-14.22,78.92,2.38,2.89,1.53-33.48-10.59-84.59,7.94-5.57,2-59.14,21.06-89.61-.5C258.19,677.08,247.27,664.12,244.12,657.44Z" transform="translate(-244.12 -417.51)"/><path class="cls-11" d="M263.67,689.28s30.59,18.52,99.22-4.71C366.73,683.27,304.9,725.39,263.67,689.28Z" transform="translate(-244.12 -417.51)"/><path class="cls-11" d="M331.25,705.4s21.47-8,37.89-21.23c0,0,45.54-12.51,85.92-1.64,3.43.92-25.62-3.47-75.59,18.6C370.93,704.9,332.78,706.68,331.25,705.4Z" transform="translate(-244.12 -417.51)"/><path class="cls-11" d="M376.91,566.9l-5.56-.07.14-12.31,4.75-.13.26-1.66-19.33-.09-1.39-10.3,4.72,0,0-3.06,2.49.11.19-4-2.09.05-.2-20.29,2.25,0-.14-4h-2l-.1-5.1-13,.07,0-1.8,1-1.78H338.84l1.34,1.94-.05,1.65-12.8.2-.08,4.54-1.77.51-.33,4.57,2.62-.27-.1,19.52-1.82.21.07,3.83,1.85-.21,0,3.22h5l-1.38,10.09-20-.11-.09,1.86,5.42,0,0,12.73-4.24-.07v5.37l16.14.18L312.91,679H313c13.94,3.56,61.12-15,61.12-15L359.92,572l16.86-.12Zm-7.27-12.48.09,6.38-11.13.27-1.31-6.7Zm-16.59,35.86-8.85,8.91-8.74-8.69,8.85-8.36Zm-12.88-18.43,8.79,0-4.26,4.45ZM344.85,605l14.33,13.65-14.83,14-15.19-13.8Zm11.39-10.91,2.21,17.72-10.59-10.49ZM354.31,586l-6.94-6.88,5.8-5.7Zm-13.91-42.2,7.94,0,3.58,23-15.24,0Zm-4.86,29.62,5.8,5.7L334.39,586Zm-3,20.67,8.38,7.23-10.59,10.49Zm-14.08-39.66,12.35,0-1.31,6.7-11.13-.29ZM328.61,567H318.39l0-4.41,11-.05Zm-.56,56.83,8.71,8.23-9.92.4Zm-2.83,13,14.6.1-16.29,15.51ZM344.85,663,326.17,656l18.27-16.86,18.62,17.44ZM365,652.39l-16.29-15.51,14.6-.1Zm-4.5-28.58,1.21,8.63-9.92-.4ZM369.73,567H359.51l-.71-4.45,11,0Z" transform="translate(-244.12 -417.51)"/></svg>