<svg id="Layer_1" data-name="Layer 1" xmlns="http://www.w3.org/2000/svg" xmlns:xlink="http://www.w3.org/1999/xlink" viewBox="0 0 1311.02 288.3"><defs><style>.cls-1{fill:none;}.cls-2{font-size:159px;font-family:ibrand-Regular, ibrand;letter-spacing:0em;}.cls-15,.cls-2{fill:#071c2e;}.cls-3{letter-spacing:0.01em;}.cls-4{letter-spacing:0.01em;}.cls-5{letter-spacing:-0.02em;}.cls-6{letter-spacing:0em;}.cls-7{letter-spacing:-0.02em;}.cls-8{letter-spacing:0.01em;}.cls-9{letter-spacing:0.01em;}.cls-10{letter-spacing:0.01em;}.cls-11{fill:url(#linear-gradient);}.cls-12{fill:#13173b;}.cls-13{clip-path:url(#clip-path);}.cls-14{fill:#fff;}</style><linearGradient id="linear-gradient" x1="428.63" y1="680.9" x2="515.07" y2="491.76" gradientUnits="userSpaceOnUse"><stop offset="0" stop-color="#c7f1ee"/><stop offset="0.06" stop-color="#c3efec"/><stop offset="0.13" stop-color="#b6e9e5" stop-opacity="0.98"/><stop offset="0.21" stop-color="#a1dfda" stop-opacity="0.96"/><stop offset="0.28" stop-color="#85d1cb" stop-opacity="0.93"/><stop offset="0.35" stop-color="#65c2ba" stop-opacity="0.9"/><stop offset="0.49" stop-color="#8ec488" stop-opacity="0.93"/><stop offset="0.65" stop-color="#b7c657" stop-opacity="0.96"/><stop offset="0.8" stop-color="#d4c833" stop-opacity="0.98"/><stop offset="0.92" stop-color="#e7c91d"/><stop offset="1" stop-color="#edc915"/></linearGradient><clipPath id="clip-path" transform="translate(-361.69 -416.92)"><path class="cls-1" d="M461.39,416.92c.22-.21,1.18,28.59,1.18,28.59S358.71,651.28,430.93,678.34c0,0-47.49,15.61-62.48-54.54-2.6-12.17-4.75-40.57,27.18-96.33C413.47,496.31,451.3,444.39,461.39,416.92Z"/></clipPath></defs><text class="cls-2" transform="translate(275.3 219.27)">V<tspan class="cls-3" x="89.99" y="0">i</tspan><tspan class="cls-4" x="120.04" y="0">s</tspan><tspan class="cls-5" x="189.37" y="0">hv</tspan><tspan class="cls-6" x="345.19" y="0">e</tspan><tspan class="cls-4" x="433.11" y="0">s</tspan><tspan class="cls-7" x="502.44" y="0">hw</tspan><tspan class="cls-8" x="705.95" y="0">ar </tspan><tspan class="cls-9" x="886.1" y="0">o</tspan><tspan class="cls-10" x="975.61" y="0">il</tspan></text><path class="cls-11" d="M555.08,601.43c-12.84-5.72-8.52-26.28-7.21-31.46a3,3,0,0,0-.33-2.3c-6-10.11-51.14-86.13-53.43-89.76-26.29-41.58-32.7-61-32.7-61-5.24,18.41-26.29,51.69-26.29,51.69-27.93,41.83-52,88.1-57.63,97.82-11.79,20.42-9,58-7.55,63.13,13.33,48.79,39.64,49.5,44.56,49.5,42.38,0,75.21-14.6,82.19-17,16.09-5.64,42.56.83,42.76.53C558.64,633.28,556.32,602,555.08,601.43Zm-57.39,59.11c-2.95,4.34-44.38,15.73-65.9,4.39-10.59-5.58-20.38-11.6-10.75-46.68C425,604,452.63,502.59,462.23,473.38c1.35-4.1,38.54,140.07,38.54,140.07S511.92,639.69,497.69,660.54Z" transform="translate(-361.69 -416.92)"/><path class="cls-12" d="M579.21,560.15c-1.42-3.72-7.86-21.54-11-30.16a1.38,1.38,0,0,0-2.64.15c-3.3,14.19-12.32,37.08-13.91,41.06-.16.4-.31.82-.45,1.24-9.4,28.35,16.88,28.84,20.31,27.81C593.9,593.5,580.83,564.4,579.21,560.15Zm-7.58,33.53c2.78-3.29,5.65-9.25,6.5-20,.12-1.53,2.49-1.8,2.69-.28,1.18,8.83,1.77,16.31-7.62,22.46C572,596.62,570.7,594.77,571.63,593.68Z" transform="translate(-361.69 -416.92)"/><path class="cls-12" d="M566,597.2l-.19,0s0,0,.12,0Z" transform="translate(-361.69 -416.92)"/><path class="cls-14" d="M389.09,648.71l-.53-.45s-27.12-34.76,3.29-96c9.7-19.53,51.14-88,56.85-99.52,2.28-4.59-28.26,73.27-37.11,91.06,0,0-27.56,56.79-22.47,105" transform="translate(-361.69 -416.92)"/><path class="cls-15" d="M361.69,656.85S386,684,414.3,684c18,0,43-2.46,64.21-12,9.08-4.09,47.55-14.21,78.93,2.39,2.89,1.52-33.49-10.6-84.6,7.93-5.57,2-59.13,21.06-89.6-.5C375.76,676.5,364.83,663.53,361.69,656.85Z" transform="translate(-361.69 -416.92)"/><path class="cls-15" d="M381.24,688.69s30.58,18.52,99.22-4.71C484.3,682.68,422.47,724.8,381.24,688.69Z" transform="translate(-361.69 -416.92)"/><path class="cls-15" d="M448.82,704.81s21.46-8,37.88-21.22c0,0,45.55-12.52,85.93-1.65,3.42.92-25.62-3.47-75.59,18.6C488.5,704.31,450.34,706.09,448.82,704.81Z" transform="translate(-361.69 -416.92)"/><path class="cls-15" d="M494.47,566.31l-5.55-.07.13-12.31,4.75-.13.27-1.65-19.33-.09-1.39-10.3h4.72v-3l2.49.1.2-4-2.09,0-.2-20.28,2.24-.05-.14-4h-2l-.11-5.1-13,.06,0-1.79,1-1.78-10.11,0,1.35,1.95-.05,1.64-12.81.2-.07,4.54-1.77.51-.33,4.58,2.61-.28-.1,19.52-1.81.21.06,3.83,1.85-.2,0,3.22h5L449,551.74l-20-.1-.08,1.85,5.41,0,0,12.73-4.23-.06v5.37l16.14.17L430.48,678.38h.08c13.95,3.56,61.13-15,61.13-15l-14.21-91.91,16.86-.12Zm-7.26-12.47.09,6.37-11.14.28-1.31-6.7ZM470.62,589.7l-8.85,8.9L453,589.92l8.85-8.37Zm-12.88-18.44,8.78,0-4.26,4.46Zm4.67,33.18,14.34,13.64-14.83,14-15.2-13.8Zm11.4-10.91L476,611.24l-10.59-10.49Zm-1.93-8.09-6.95-6.88,5.8-5.71ZM458,543.23l7.94,0,3.59,23-15.24,0Zm-4.85,29.62,5.79,5.71L452,585.44Zm-3,20.68,8.38,7.22-10.59,10.49ZM436,553.86l12.36,0-1.31,6.7L436,560.24Zm10.13,12.53H436l0-4.41,11,0Zm-.56,56.83,8.72,8.24-9.92.39Zm-2.83,13,14.6.1-16.29,15.52Zm19.63,26.26-18.68-7.07L462,638.52,480.62,656Zm20.13-10.64-16.29-15.52,14.6-.1ZM478,623.22l1.21,8.63-9.92-.39Zm9.26-56.86H477.08l-.71-4.45,11,.05Z" transform="translate(-361.69 -416.92)"/></svg>